<svg width="477" height="142" viewBox="0 0 477 142" fill="none" xmlns="http://www.w3.org/2000/svg">
<g clip-path="url(#clip0_132_84)">
<path d="M392.07 11.8C392.305 11.793 392.532 11.7186 392.725 11.5856C392.919 11.4525 393.07 11.2666 393.16 11.05L396.79 0.749952C396.831 0.662963 396.848 0.566451 396.838 0.470747C396.828 0.375042 396.793 0.283751 396.735 0.206678C396.678 0.129605 396.6 0.0696496 396.511 0.0332314C396.422 -0.00318667 396.325 -0.0146909 396.23 -4.79757e-05C395.992 0.0141542 395.763 0.0973455 395.571 0.239393C395.379 0.38144 395.233 0.576212 395.15 0.799955L391.52 11.1C391.494 11.1836 391.488 11.2723 391.504 11.3585C391.52 11.4447 391.557 11.5258 391.611 11.5947C391.665 11.6636 391.735 11.7183 391.815 11.7541C391.895 11.7898 391.983 11.8056 392.07 11.8Z" fill="black"/>
<path d="M371.34 15.9599C371.382 16.08 371.463 16.1827 371.57 16.2515C371.676 16.3204 371.803 16.3515 371.93 16.3399C372.086 16.3345 372.239 16.297 372.38 16.2299C372.583 16.1569 372.757 16.02 372.876 15.8397C372.995 15.6595 373.053 15.4455 373.04 15.2299L370.55 6.31995C370.45 5.95995 369.99 5.83995 369.55 6.03995C369.345 6.11128 369.169 6.24743 369.048 6.42784C368.927 6.60826 368.868 6.82312 368.88 7.03995L371.34 15.9599Z" fill="black"/>
<path d="M345.65 23.4799L353.6 28.6299C353.715 28.6989 353.846 28.7336 353.98 28.7299C354.302 28.7174 354.606 28.5813 354.83 28.3499C355.19 27.9899 355.21 27.5299 354.89 27.3499L346.94 22.1999C346.733 22.1111 346.504 22.0903 346.284 22.1406C346.065 22.191 345.867 22.3098 345.72 22.4799C345.36 22.7999 345.33 23.2699 345.65 23.4799Z" fill="black"/>
<path d="M344.15 44.8999C344.188 44.8128 344.202 44.7173 344.19 44.623C344.179 44.5288 344.144 44.4391 344.087 44.363C344.03 44.287 343.954 44.2273 343.867 44.1898C343.78 44.1524 343.684 44.1387 343.59 44.1499H332.3C332.065 44.1569 331.838 44.2313 331.645 44.3643C331.451 44.4974 331.3 44.6833 331.21 44.8999C331.17 44.9875 331.154 45.0842 331.164 45.18C331.174 45.2758 331.209 45.3671 331.266 45.4447C331.324 45.5222 331.4 45.583 331.489 45.6209C331.577 45.6587 331.674 45.6722 331.77 45.6599H343.04C343.279 45.6535 343.51 45.5783 343.707 45.4435C343.904 45.3087 344.058 45.12 344.15 44.8999Z" fill="black"/>
<path d="M342.15 61.18L330.58 66.33C330.375 66.4013 330.199 66.5375 330.078 66.7179C329.957 66.8983 329.898 67.1132 329.91 67.33C329.952 67.4474 330.031 67.5475 330.136 67.6145C330.242 67.6816 330.366 67.7116 330.49 67.7C330.645 67.6994 330.799 67.6653 330.94 67.6L342.52 62.46C342.725 62.3887 342.901 62.2525 343.022 62.0721C343.143 61.8917 343.202 61.6768 343.19 61.46C343.06 61.09 342.59 60.97 342.15 61.18Z" fill="black"/>
<path d="M415.15 66.33L407.15 61.18C406.944 61.0783 406.709 61.0506 406.485 61.1016C406.261 61.1526 406.062 61.2792 405.92 61.46C405.57 61.82 405.54 62.28 405.86 62.46L413.81 67.6C413.925 67.6689 414.056 67.7036 414.19 67.7C414.51 67.6892 414.814 67.5569 415.04 67.33C415.43 67 415.46 66.53 415.15 66.33Z" fill="black"/>
<path d="M429.02 44.1499H417.75C417.515 44.1569 417.288 44.2313 417.094 44.3643C416.901 44.4974 416.75 44.6833 416.66 44.8999C416.62 44.9875 416.604 45.0842 416.614 45.18C416.624 45.2758 416.659 45.3671 416.716 45.4447C416.774 45.5222 416.85 45.583 416.939 45.6209C417.027 45.6587 417.125 45.6722 417.22 45.6599H428.49C428.726 45.6534 428.955 45.578 429.149 45.443C429.342 45.3079 429.492 45.1192 429.58 44.8999C429.618 44.8128 429.632 44.7173 429.62 44.623C429.609 44.5288 429.574 44.4391 429.517 44.363C429.46 44.287 429.384 44.2273 429.297 44.1898C429.21 44.1524 429.114 44.1387 429.02 44.1499Z" fill="black"/>
<path d="M418.22 28.73C418.375 28.7282 418.529 28.6942 418.67 28.63L430.25 23.48C430.453 23.4069 430.627 23.27 430.746 23.0898C430.865 22.9095 430.923 22.6956 430.91 22.48C430.81 22.12 430.35 22 429.91 22.2L418.33 27.35C418.127 27.4231 417.953 27.5599 417.834 27.7402C417.715 27.9205 417.657 28.1344 417.67 28.35C417.707 28.465 417.781 28.5645 417.881 28.6331C417.98 28.7018 418.099 28.7359 418.22 28.73Z" fill="black"/>
<path d="M408.64 16.23C408.749 16.3033 408.878 16.3417 409.01 16.34C409.332 16.3275 409.636 16.1914 409.86 15.96L418.64 7.04002C419 6.68002 419.03 6.22002 418.71 6.04002C418.501 5.95191 418.271 5.93153 418.05 5.98178C417.829 6.03202 417.63 6.15034 417.48 6.32002L408.7 15.23C408.34 15.56 408.31 16.03 408.64 16.23Z" fill="black"/>
<path d="M385.15 81.51L385.2 81.36C387.604 75.0864 391.841 69.682 397.36 65.85C405.12 60.25 410.93 52.94 413.74 45.25C416.74 37.1 415.99 29.38 411.74 23.51C407.49 17.64 400.2 14.4 391.29 14.39H391.15C382.23 14.39 372.73 17.55 364.39 23.31C356.05 29.07 349.84 36.74 346.96 44.9C344.22 52.66 344.81 60.06 348.61 65.73C351.49 70.02 351.95 75.57 349.91 81.35L349.85 81.51C349.588 82.1307 349.491 82.8086 349.568 83.4778C349.645 84.1471 349.894 84.7851 350.29 85.33C349.419 85.435 348.59 85.7675 347.888 86.2941C347.186 86.8207 346.635 87.5229 346.29 88.33C346.14 88.6615 346.076 89.0254 346.105 89.3881C346.133 89.7508 346.252 90.1005 346.452 90.4047C346.651 90.7089 346.924 90.9578 347.246 91.1283C347.567 91.2988 347.926 91.3854 348.29 91.38C347.845 91.8195 347.504 92.3524 347.29 92.94C347.148 93.2691 347.091 93.6282 347.124 93.985C347.156 94.3417 347.277 94.6847 347.476 94.9828C347.675 95.2808 347.945 95.5245 348.261 95.6917C348.578 95.8589 348.932 95.9442 349.29 95.94C348.845 96.3795 348.504 96.9124 348.29 97.5C348.133 97.8542 348.073 98.2436 348.116 98.6285C348.159 99.0134 348.303 99.3801 348.534 99.6912C348.764 100.002 349.074 100.247 349.43 100.399C349.786 100.552 350.176 100.607 350.56 100.56H350.64L352.26 103.11C352.613 103.602 353.086 103.996 353.634 104.255C354.181 104.514 354.786 104.629 355.39 104.59H363.3C364.811 104.547 366.27 104.029 367.47 103.11L370.9 100.56H370.98C371.933 100.526 372.857 100.219 373.642 99.6772C374.427 99.135 375.04 98.3796 375.41 97.5C375.601 97.0011 375.625 96.454 375.48 95.94C376.378 95.8605 377.238 95.5397 377.968 95.0116C378.699 94.4835 379.273 93.7677 379.63 92.94C379.823 92.4421 379.851 91.8951 379.71 91.38C380.612 91.2942 381.473 90.9652 382.202 90.428C382.931 89.8908 383.501 89.1657 383.85 88.33C383.992 88.0136 384.055 87.6673 384.033 87.3212C384.01 86.975 383.904 86.6396 383.723 86.3439C383.541 86.0482 383.29 85.8013 382.992 85.6246C382.694 85.4479 382.356 85.3468 382.01 85.33C383.434 84.4202 384.533 83.083 385.15 81.51ZM366.62 102.16C365.827 102.774 364.862 103.124 363.86 103.16H355.94C355.538 103.183 355.138 103.103 354.776 102.928C354.414 102.753 354.102 102.489 353.87 102.16L353.04 100.85H368.38L366.62 102.16ZM351.56 81.51L351.62 81.35C353.79 75.18 353.3 69.27 350.23 64.69C346.62 59.31 346.07 52.28 348.67 44.9C351.4 37.15 357.29 29.9 365.23 24.38C373.17 18.86 382.23 15.9 390.66 15.9H390.72C399.19 15.9 406.09 18.99 410.16 24.57C414.23 30.15 414.91 37.49 412.09 45.23C409.42 52.54 403.89 59.49 396.52 64.81C390.619 68.8919 386.088 74.6602 383.52 81.36L383.46 81.51C383.004 82.5993 382.246 83.5351 381.275 84.2068C380.303 84.8785 379.16 85.2578 377.98 85.3H354.33C352.04 85.3 350.78 83.6 351.52 81.51H351.56ZM371.56 99.1H351.07C350.877 99.124 350.68 99.0962 350.501 99.0194C350.322 98.9426 350.166 98.8195 350.05 98.6629C349.934 98.5062 349.862 98.3215 349.841 98.1277C349.82 97.9339 349.851 97.738 349.93 97.56C350.115 97.1157 350.423 96.7336 350.818 96.4589C351.214 96.1842 351.679 96.0285 352.16 96.01H372.58C372.775 95.9862 372.972 96.0145 373.152 96.0919C373.333 96.1692 373.489 96.2929 373.606 96.4504C373.723 96.6079 373.796 96.7936 373.818 96.9885C373.839 97.1834 373.809 97.3806 373.73 97.56C373.543 98.004 373.232 98.385 372.835 98.658C372.438 98.9309 371.972 99.0843 371.49 99.1H371.56ZM375.79 94.5H350.09C349.897 94.524 349.7 94.4962 349.521 94.4194C349.342 94.3426 349.186 94.2195 349.07 94.0629C348.954 93.9062 348.882 93.7215 348.861 93.5277C348.84 93.334 348.871 93.138 348.95 92.96C349.134 92.515 349.442 92.1322 349.837 91.8574C350.233 91.5825 350.699 91.4272 351.18 91.41H376.81C377.005 91.385 377.203 91.4125 377.383 91.4897C377.564 91.567 377.72 91.6911 377.836 91.8493C377.953 92.0075 378.025 92.1939 378.045 92.3892C378.065 92.5845 378.032 92.7816 377.95 92.96C377.765 93.4032 377.456 93.7839 377.061 94.0569C376.665 94.3298 376.2 94.4837 375.72 94.5H375.79ZM381.1 86.81C381.293 86.786 381.49 86.8138 381.669 86.8906C381.848 86.9674 382.004 87.0905 382.12 87.2472C382.236 87.4038 382.308 87.5885 382.329 87.7823C382.35 87.9761 382.319 88.172 382.24 88.35C382.056 88.7951 381.748 89.1778 381.353 89.4527C380.957 89.7275 380.491 89.8828 380.01 89.9H349.15C348.955 89.9238 348.758 89.8955 348.578 89.8182C348.397 89.7408 348.241 89.6171 348.124 89.4596C348.007 89.3021 347.934 89.1164 347.912 88.9215C347.891 88.7266 347.921 88.5294 348 88.35C348.187 87.906 348.498 87.525 348.895 87.2521C349.292 86.9792 349.758 86.8257 350.24 86.81H381.06H381.1Z" fill="black"/>
<path d="M370.15 63.32C369.678 63.318 369.21 63.2299 368.77 63.06C367.89 62.71 367.06 61.43 366.23 59.15C366.207 58.9923 366.239 58.8317 366.318 58.6938C366.398 58.556 366.522 58.449 366.67 58.39C367.01 58.22 367.36 58.29 367.46 58.55C368.46 61.23 369.2 61.88 369.57 62.02C369.903 62.182 370.272 62.2554 370.641 62.2329C371.011 62.2105 371.368 62.093 371.679 61.8918C371.99 61.6906 372.244 61.4126 372.415 61.0847C372.587 60.7568 372.672 60.39 372.66 60.02C372.685 59.8695 372.75 59.7286 372.848 59.6123C372.947 59.4961 373.076 59.4088 373.22 59.36C373.337 59.2973 373.475 59.2821 373.603 59.3174C373.731 59.3528 373.841 59.436 373.91 59.55C374.111 60.012 374.48 60.3809 374.941 60.583C375.403 60.7851 375.924 60.8055 376.4 60.64C376.751 60.589 377.071 60.4112 377.3 60.14C377.423 59.9516 377.506 59.7398 377.544 59.5179C377.582 59.296 377.574 59.0686 377.52 58.85C377.502 58.689 377.541 58.5268 377.628 58.3904C377.715 58.254 377.846 58.1515 378 58.1C378.33 57.94 378.67 58.02 378.76 58.28C378.9 58.6794 379.103 59.0541 379.36 59.39C379.65 59.76 380.11 60.16 380.64 59.94C380.999 59.781 381.303 59.5199 381.515 59.1891C381.727 58.8584 381.836 58.4726 381.83 58.08C381.848 57.9175 381.914 57.7642 382.022 57.6408C382.129 57.5175 382.271 57.4299 382.43 57.39C382.77 57.28 383.07 57.39 383.1 57.69C383.119 57.9022 383.192 58.1059 383.313 58.2811C383.434 58.4564 383.598 58.5973 383.79 58.69C384.229 58.8096 384.696 58.7596 385.1 58.55C385.245 58.4838 385.367 58.3759 385.45 58.24C386.35 56.95 386.01 53.42 385.58 51.5C385.58 51.5 385.19 49.79 384.58 47.79C384.557 47.6297 384.59 47.4663 384.674 47.3277C384.758 47.1891 384.887 47.0839 385.04 47.03C385.38 46.87 385.73 46.95 385.81 47.21C386.47 49.21 386.86 50.96 386.87 50.98C386.99 51.53 388.02 56.43 386.52 58.57C386.23 59.0128 385.816 59.3605 385.33 59.57C384.615 59.9225 383.795 59.9938 383.03 59.77C382.882 59.716 382.743 59.6383 382.62 59.54C382.216 60.1884 381.618 60.6924 380.91 60.98C380.5 61.1893 380.031 61.2509 379.581 61.1543C379.131 61.0578 378.728 60.809 378.44 60.45C378.402 60.5108 378.359 60.5677 378.31 60.62C377.821 61.2077 377.148 61.613 376.4 61.77C375.926 61.9193 375.423 61.9564 374.932 61.8783C374.441 61.8002 373.975 61.6091 373.57 61.32C373.243 61.9378 372.756 62.456 372.159 62.8203C371.563 63.1846 370.879 63.3814 370.18 63.39L370.15 63.32Z" fill="black"/>
<path d="M373.06 60.42C372.963 60.4297 372.865 60.4036 372.786 60.3465C372.707 60.2894 372.651 60.2053 372.63 60.11L372.03 57.11C372.026 56.9447 372.075 56.7824 372.171 56.6474C372.266 56.5123 372.403 56.4115 372.56 56.36C372.91 56.23 373.24 56.36 373.29 56.61L373.89 59.61C373.894 59.7754 373.845 59.9376 373.749 60.0727C373.654 60.2078 373.517 60.3085 373.36 60.36C373.265 60.3991 373.163 60.4195 373.06 60.42Z" fill="black"/>
<path d="M377.91 59.1201C377.813 59.1306 377.715 59.1062 377.635 59.0512C377.554 58.9962 377.496 58.9143 377.47 58.8201L376.7 54.8201C376.696 54.6544 376.746 54.4919 376.844 54.358C376.942 54.2241 377.081 54.1264 377.24 54.0801C377.58 53.9401 377.91 54.0801 377.96 54.3301L378.73 58.3301C378.733 58.4967 378.682 58.6598 378.585 58.7951C378.488 58.9303 378.349 59.0303 378.19 59.0801C378.099 59.1066 378.005 59.1201 377.91 59.1201Z" fill="black"/>
<path d="M382.23 58.46C382.132 58.4701 382.033 58.4443 381.952 58.3873C381.871 58.3303 381.814 58.2461 381.79 58.15L380.74 52.7C380.735 52.5356 380.784 52.3741 380.88 52.2404C380.976 52.1067 381.113 52.0082 381.27 51.96C381.62 51.83 381.94 51.96 381.99 52.21L383.05 57.66C383.052 57.8237 383.001 57.9836 382.906 58.1167C382.811 58.2498 382.676 58.349 382.52 58.4C382.428 58.4381 382.33 58.4585 382.23 58.46Z" fill="black"/>
<path d="M362.04 53.59C361.799 53.6008 361.558 53.5621 361.333 53.4761C361.108 53.39 360.902 53.2586 360.73 53.09L360.32 52.65C359.63 51.9 359.98 50.59 361.11 49.72L363.16 48.13C364.47 47.13 366.16 47 366.99 47.86C367.82 48.72 367.38 50.26 366.08 51.27L364.02 52.86C363.457 53.3122 362.762 53.5685 362.04 53.59ZM361.77 50.44C361.25 50.84 361.08 51.44 361.41 51.81L361.82 52.25C362.046 52.417 362.325 52.4977 362.605 52.4775C362.886 52.4573 363.15 52.3376 363.35 52.14L365.41 50.55C366.12 50 366.34 49.17 365.9 48.7C365.593 48.4768 365.216 48.3695 364.838 48.3969C364.459 48.4244 364.102 48.5848 363.83 48.85L361.77 50.44Z" fill="black"/>
<path d="M360.89 50.51C360.684 50.5165 360.479 50.4798 360.287 50.4023C360.096 50.3248 359.923 50.2082 359.78 50.06L359.48 49.74C359.352 49.5768 359.26 49.3884 359.211 49.1872C359.161 48.986 359.154 48.7765 359.191 48.5726C359.228 48.3686 359.307 48.1747 359.424 48.0036C359.541 47.8326 359.693 47.6882 359.87 47.58L361.04 46.68C361.416 46.3495 361.899 46.1672 362.4 46.1672C362.901 46.1672 363.384 46.3495 363.76 46.68C363.907 46.8655 364.013 47.0801 364.071 47.3095C364.13 47.5389 364.139 47.7781 364.098 48.0113C364.058 48.2445 363.968 48.4665 363.836 48.6628C363.703 48.859 363.531 49.025 363.33 49.15L362.16 50.05C361.8 50.3403 361.353 50.5022 360.89 50.51ZM360.54 48.3C360.5 48.3391 360.468 48.3858 360.447 48.4373C360.425 48.4888 360.414 48.5441 360.414 48.6C360.414 48.6559 360.425 48.7112 360.447 48.7627C360.468 48.8142 360.5 48.8609 360.54 48.9L360.84 49.22C360.917 49.3099 361.023 49.3707 361.139 49.3926C361.255 49.4144 361.376 49.3958 361.48 49.34L362.65 48.44C362.711 48.3812 362.76 48.3106 362.794 48.2324C362.827 48.1542 362.844 48.07 362.844 47.985C362.844 47.9 362.827 47.8158 362.794 47.7376C362.76 47.6594 362.711 47.5888 362.65 47.53C362.526 47.3935 362.357 47.3055 362.174 47.2817C361.991 47.2579 361.805 47.2998 361.65 47.4L360.54 48.3Z" fill="black"/>
<path d="M363.79 56.6699C363.55 56.6819 363.311 56.6435 363.087 56.5574C362.863 56.4713 362.66 56.3393 362.49 56.1699L362.08 55.7299C361.39 54.9899 361.75 53.67 362.87 52.8L364.87 51.21C366.18 50.21 367.87 50.0799 368.7 50.9499C369.53 51.8199 369.09 53.34 367.79 54.36L365.73 55.9499C365.212 56.3645 364.581 56.6151 363.92 56.6699H363.79ZM366.84 51.47C366.385 51.485 365.946 51.6463 365.59 51.93L363.53 53.52C363.01 53.93 362.85 54.5199 363.17 54.8899L363.58 55.33C363.669 55.4201 363.777 55.4879 363.897 55.5279C364.017 55.5679 364.145 55.5789 364.27 55.5599C364.578 55.5421 364.872 55.4265 365.11 55.2299L367.17 53.6399C367.88 53.0899 368.1 52.26 367.67 51.79C367.56 51.6832 367.43 51.5998 367.288 51.5448C367.145 51.4898 366.993 51.4644 366.84 51.47Z" fill="black"/>
<path d="M365.31 59.86C365.071 59.8695 364.832 59.83 364.608 59.7441C364.385 59.6581 364.181 59.5274 364.01 59.36L363.6 58.91C363.436 58.7191 363.323 58.4893 363.272 58.2426C363.221 57.9959 363.234 57.7403 363.31 57.5C363.494 56.8916 363.874 56.3608 364.39 55.99L366.44 54.39C367.045 53.9094 367.78 53.6204 368.55 53.56C368.861 53.5191 369.177 53.5491 369.475 53.6478C369.773 53.7465 370.045 53.9114 370.27 54.13C370.465 54.3518 370.599 54.6206 370.659 54.9099C370.718 55.1992 370.702 55.4991 370.61 55.78C370.389 56.4837 369.952 57.0997 369.36 57.54L367.3 59.13C366.782 59.5445 366.151 59.7952 365.49 59.85L365.31 59.86ZM365.05 56.71C364.811 56.8825 364.636 57.1284 364.55 57.41C364.513 57.5225 364.506 57.6429 364.531 57.7589C364.555 57.8748 364.61 57.9822 364.69 58.07L365.1 58.52C365.19 58.6088 365.298 58.6758 365.418 58.7157C365.538 58.7555 365.665 58.7673 365.79 58.75C366.098 58.7234 366.39 58.605 366.63 58.41L368.69 56.82C369.014 56.5648 369.252 56.2155 369.37 55.82C369.419 55.6686 369.428 55.5073 369.396 55.3515C369.364 55.1957 369.294 55.0506 369.19 54.93C369.067 54.811 368.918 54.7213 368.755 54.6676C368.593 54.614 368.42 54.5977 368.25 54.62C367.834 54.6545 367.437 54.811 367.11 55.07L365.05 56.67V56.71Z" fill="black"/>
<path d="M347.66 44.28L359.58 48.28C359.64 48.2895 359.7 48.2895 359.76 48.28C359.899 48.2732 360.035 48.2356 360.158 48.1698C360.281 48.1041 360.387 48.0119 360.47 47.9C360.67 47.61 360.61 47.29 360.33 47.2L348.39 43.2" fill="black"/>
<path d="M355.15 32.65C355.15 32.65 358.63 34.03 362.52 35.17C367.93 36.77 371.46 37.17 373.31 36.41C375.77 35.41 377.36 35.9 378.11 36.31L375.29 38.03C374.97 38.23 374.81 38.58 374.95 38.81C374.991 38.8752 375.049 38.9282 375.118 38.9634C375.186 38.9986 375.263 39.0147 375.34 39.01C375.497 39.0053 375.649 38.9568 375.78 38.87L379.41 36.66C379.576 36.5628 379.704 36.4107 379.77 36.23C379.8 36.16 379.809 36.0826 379.795 36.0077C379.78 35.9328 379.744 35.8639 379.69 35.81C379.6 35.72 377.45 33.64 373.09 35.43C372.25 35.77 369.86 36.06 363.24 34.11C359.39 32.98 355.98 31.63 355.95 31.62" fill="black"/>
<path d="M414.59 42.05L402.27 45.16C402.138 45.1911 402.014 45.2527 401.91 45.34C397.55 48.7288 392.378 50.9148 386.91 51.68L385.76 47.2C385.76 47.2 385.76 47.2 385.76 47.15C385.278 46.1223 384.703 45.1414 384.04 44.22C382.58 42.22 381.04 41.15 379.52 41.07C378.517 41.0392 377.535 41.3652 376.75 41.99C375.07 43.24 373.59 43.78 372.45 43.57C372.126 43.5395 371.818 43.4114 371.568 43.2025C371.318 42.9936 371.138 42.7138 371.05 42.4C371.13 42.25 371.7 41.5 375.28 39.19C377.1 38.01 378.88 36.96 379.28 36.72C380.03 36.48 385.65 34.78 390.8 35.72C391.791 35.8895 392.795 35.9731 393.8 35.97C396.937 35.9154 400.04 35.313 402.97 34.19L413.97 30.65C414.141 30.2182 414.345 29.8003 414.58 29.4L402.82 33.17H402.75C402.69 33.17 396.81 35.57 391.33 34.6C385.48 33.6 379.28 35.6 379.01 35.73L378.84 35.81C378.84 35.81 376.59 37.12 374.4 38.55C373.1 39.39 372.06 40.12 371.32 40.71C370.15 41.64 369.66 42.25 369.69 42.71C369.776 43.2121 370.026 43.6716 370.4 44.017C370.775 44.3624 371.253 44.5744 371.76 44.62C372.84 44.82 374.68 44.62 377.31 42.7C377.779 42.3141 378.373 42.1116 378.98 42.13C381.47 42.26 383.77 46.19 384.46 47.73L385.69 52.5C385.717 52.5905 385.775 52.6688 385.853 52.7216C385.932 52.7745 386.026 52.7987 386.12 52.79H386.17C387.985 52.6015 389.778 52.233 391.52 51.69C395.458 50.5337 399.144 48.6514 402.39 46.14L414.39 43.14C414.426 42.7717 414.493 42.4072 414.59 42.05Z" fill="black"/>
<path d="M0 105.52C6.46 96.1866 14.2467 84.6366 23.36 70.8699L48.94 32.4099C56.8733 20.5299 63.61 10.2499 69.15 1.56995C73.07 1.66995 75.86 1.71994 77.5 1.71994C80.3867 1.71994 83.2333 1.66995 86.04 1.56995L81.58 32.7199L73.05 97.1399L72.05 105.52L65.26 105.37C63.68 105.37 61.0133 105.42 57.26 105.52C58.12 101 59.12 94.9066 60.26 87.2399C61.4 79.5733 62.26 73.3566 62.84 68.5899H38.84C31.02 80.6699 23.21 92.9799 15.41 105.52L8.02 105.37C6.57333 105.37 3.9 105.42 0 105.52ZM48.41 52.7399H65.9L71.15 17.4999L62.94 30.3099L48.41 52.7399Z" fill="black"/>
<path d="M90.31 105.52C92.0833 94.8066 95.78 68.9899 101.4 28.0699C104.05 28.1699 106.4 28.2299 108.3 28.2299C110.2 28.2299 112.5 28.1699 114.7 28.0699L104.87 86.22L108.68 79.59L134.32 36.0699C135.52 34.0699 137.07 31.4033 138.97 28.0699C141.42 28.1699 143.62 28.2299 145.56 28.2299C147.5 28.2299 149.79 28.1699 152.35 28.0699L135.44 54.9499L110.3 95.6999L104.42 105.52C101.753 105.42 99.4733 105.37 97.58 105.37C95.6867 105.37 93.2633 105.42 90.31 105.52Z" fill="black"/>
<path d="M153.08 45.05C154.79 41.4 155.96 38.83 156.59 37.36C157.22 35.89 158.19 33.6601 159.52 30.6601C163.491 29.2436 167.554 28.0976 171.68 27.23C174.818 26.5936 178.009 26.2587 181.21 26.23C184.175 26.1425 187.114 26.81 189.75 28.17C190.902 28.8069 191.894 29.6966 192.653 30.7722C193.412 31.8478 193.917 33.0813 194.13 34.3801C194.71 37.2334 194.06 41.32 192.18 46.64C191.16 49.5467 188.317 56.9334 183.65 68.8C178.983 80.6667 174.377 92.9134 169.83 105.54C167.56 105.44 165.44 105.39 163.49 105.39C161.54 105.39 159.44 105.44 156.9 105.54C159.467 99.4 162.297 92.2934 165.39 84.2201L172.68 65.22C171.08 66.4867 169.883 67.3767 169.09 67.89C168.272 68.4156 167.42 68.8866 166.54 69.3C165.62 69.7334 164.047 70.4 161.82 71.3C159.59 72.19 157.82 72.9601 156.38 73.6201C155.018 74.2689 153.707 75.0211 152.46 75.8701C151.254 76.695 150.135 77.6398 149.12 78.6901C148.149 79.68 147.293 80.777 146.57 81.9601C145.867 83.1281 145.284 84.3644 144.83 85.6501C144.132 87.405 143.848 89.2974 144 91.1801C144.026 91.8076 144.189 92.4219 144.478 92.9798C144.766 93.5377 145.173 94.0258 145.67 94.41C146.769 95.0717 148.039 95.3919 149.32 95.33C150.4 95.3156 151.476 95.1882 152.53 94.95C154.256 94.4806 155.931 93.8407 157.53 93.04C155.87 95.94 153.6 100.257 150.72 105.99C148.893 106.491 147.036 106.871 145.16 107.13C143.952 107.274 142.737 107.351 141.52 107.36C137.69 107.36 134.84 106.49 132.98 104.77C131.12 103.05 130.27 100.3 130.43 96.54C130.605 92.6693 131.36 88.8468 132.67 85.2C133.476 82.9556 134.48 80.7871 135.67 78.7201C136.844 76.6435 138.21 74.6816 139.75 72.86C141.343 70.9968 143.096 69.2769 144.99 67.72C147.376 65.8169 149.982 64.2055 152.75 62.92C156.691 61.0816 160.754 59.5179 164.91 58.2401C166.21 57.8301 167.59 57.34 169.04 56.75C170.283 56.2743 171.486 55.7026 172.64 55.0401C173.637 54.4426 174.549 53.7127 175.35 52.8701C176.178 52.0246 176.912 51.0926 177.54 50.09C178.13 49.1465 178.613 48.1404 178.98 47.09C179.628 45.5082 179.835 43.7803 179.58 42.09C179.492 41.4918 179.266 40.9224 178.919 40.4274C178.571 39.9325 178.113 39.5258 177.58 39.2401C176.396 38.6722 175.093 38.3978 173.78 38.44C168.233 38.4334 161.333 40.6367 153.08 45.05Z" fill="black"/>
<path d="M180.92 105.52C185.68 94 190.827 81.0534 196.36 66.68C201.893 52.3067 206.697 39.4367 210.77 28.07C213.54 28.17 215.77 28.23 217.44 28.23C219.44 28.23 221.54 28.17 223.8 28.07L218.73 41.02C220.46 38.78 221.91 37.02 223.09 35.69C224.356 34.2872 225.73 32.9865 227.2 31.8C228.631 30.6317 230.187 29.6255 231.84 28.8C233.404 28.0275 235.043 27.4144 236.73 26.97C238.409 26.5164 240.141 26.2844 241.88 26.28C244.381 26.2279 246.854 26.8202 249.06 28C250.085 28.5589 250.98 29.3293 251.686 30.2603C252.391 31.1913 252.89 32.2615 253.15 33.4C253.801 36.0727 253.849 38.8566 253.29 41.55C252.673 44.7341 251.814 47.8665 250.72 50.92C250.24 52.2934 249.423 54.4767 248.27 57.47L235.58 90.8C233.84 95.42 232.03 100.343 230.15 105.57C227.777 105.47 225.737 105.42 224.03 105.42C221.71 105.42 219.37 105.47 217.03 105.57C218.83 101.15 221.853 93.4467 226.1 82.46C230.347 71.4734 233.097 64.2 234.35 60.64C235.557 57.5392 236.321 54.2839 236.62 50.97C236.71 48.53 236.19 46.68 235.04 45.41C234.473 44.782 233.776 44.2856 232.996 43.9556C232.217 43.6257 231.376 43.4702 230.53 43.5C228.5 43.5634 226.524 44.1713 224.81 45.26C222.577 46.6286 220.581 48.351 218.9 50.36C216.664 52.9566 214.719 55.7901 213.1 58.81C210.18 64.5207 207.589 70.3936 205.34 76.4C202.473 83.66 198.807 93.3834 194.34 105.57C192.027 105.47 189.927 105.42 188.04 105.42C186.153 105.42 183.78 105.453 180.92 105.52Z" fill="black"/>
<path d="M272.36 62.98C264.43 83.64 260.36 93.2 259.04 96.54C257.84 99.65 255.63 106.28 255.26 107.76C254.63 110.34 253.43 113.76 253.67 114.65C254.07 116.2 258.44 115.53 259.92 115.48C261.98 115.41 264.05 115.19 264.98 115.16C266.24 115.11 439.86 105.51 442.64 105.52C441.29 108.31 442.64 119.9 441.46 129.4C438.57 130.4 256.3 126.4 254.57 126.4C252.84 126.4 251.88 126.34 249.41 126.3C247.16 126.3 245.2 126.3 243.66 125.63C242.908 125.358 242.232 124.911 241.686 124.327C241.14 123.743 240.741 123.038 240.52 122.27C239.993 120.201 239.952 118.038 240.4 115.95C240.868 113.398 241.537 110.887 242.4 108.44C242.63 107.79 242.96 106.9 243.4 105.78C243.84 104.66 245.21 101.06 247.57 94.96L260.7 63.29" fill="black"/>
<path d="M251.39 106.28C250.628 105.921 249.955 105.397 249.422 104.744C248.889 104.092 248.509 103.328 248.31 102.51C247.783 100.441 247.742 98.2776 248.19 96.19C248.655 93.6404 249.324 91.1324 250.19 88.69C250.42 88.03 250.75 87.14 251.19 86.03C251.63 84.92 253.01 81.2999 255.37 75.2099L267.59 43.5299H261.02C262.253 40.4833 264.117 35.5833 266.61 28.8299H273.49C274.71 25.8899 276.657 20.8899 279.33 13.8299L285.33 12.0799C286.58 11.7199 289.06 10.8899 292.75 9.56995C290.137 16.3899 287.757 22.7999 285.61 28.7999H297.21C294.583 35.6599 292.75 40.5599 291.71 43.4999H280.07C272.14 64.1699 266.8 75.9499 265.65 79.1999" fill="black"/>
<path d="M275.83 105.52C278.977 97.9067 281.547 91.5333 283.54 86.4C286.72 78.28 290.293 68.9133 294.26 58.3C298.227 47.6867 301.943 37.61 305.41 28.07C308.34 28.17 310.55 28.23 312.03 28.23C313.51 28.23 315.62 28.17 318.71 28.07C315.177 36.8967 311.873 45.3233 308.8 53.35C305.727 61.3767 302.303 70.5667 298.53 80.92C294.763 91.28 291.813 99.48 289.68 105.52C286.94 105.42 284.733 105.37 283.06 105.37C281.387 105.37 278.977 105.42 275.83 105.52ZM310.31 14.8C312.31 9.56665 313.787 5.56665 314.74 2.79999L315.6 0.359985C318.33 0.459985 320.6 0.509995 322.3 0.509995C324.68 0.509995 326.9 0.509985 328.98 0.359985C328.44 1.62665 327.867 3.07332 327.26 4.69998L323.46 14.8C321.19 14.7 319.07 14.65 317.12 14.65C315.17 14.65 312.91 14.72 310.31 14.8Z" fill="black"/>
<path d="M438.85 90.24V141.61L476.7 115.02L438.85 90.24Z" fill="black"/>
</g>
<defs>
<clipPath id="clip0_132_84">
<rect width="476.7" height="141.61" fill="white"/>
</clipPath>
</defs>
</svg>
